<?xml version="1.0" encoding="UTF-8" standalone="no"?>
<svg width="170px" height="90px" viewBox="0 0 170 90" version="1.1" xmlns="http://www.w3.org/2000/svg" xmlns:xlink="http://www.w3.org/1999/xlink" xmlns:sketch="http://www.bohemiancoding.com/sketch/ns">
    <!-- Generator: Sketch 3.3.3 (12072) - http://www.bohemiancoding.com/sketch -->
    <title>Rectangle 1 Copy 2</title>
    <desc>Created with Sketch.</desc>
    <defs></defs>
    <g id="Page-1" stroke="none" stroke-width="1" fill="none" fill-rule="evenodd" sketch:type="MSPage">
        <path d="M7.36674816,85.44921 L4.73428063,82.539431 L7.36674816,80.0248007 L3.58955995,77.3493178 L9.78491693,74.2745026 L4.73428063,71.5990251 L9.78491693,68.6871525 L3.58955995,66.0116697 L8.65643852,62.9368545 L4.73428063,60.4243193 L7.36674816,57.3495008 L3.58955995,55.0280204 L7.36674816,51.9250915 L5.91584684,48.8903786 L11.9274401,45 L4.73428063,41.6368664 L8.65643852,40.1003005 L4.73428063,36.0495135 L7.36674816,33.1376385 L2,30.2992166 L8.65643852,27.5502866 L4.73428063,24.7118644 L9.78491704,21.4757918 L3.58955995,19.7745965 L8.65643852,17.5879468 L4.73428063,13.5371587 L8.65643852,10.1381437 L4.73428052,7.78686247 L9.78491704,5.0379316 L4.73428063,2 L165.657469,2 L163.853613,5.0379316 L168,9.08872012 L163.853613,12.4877351 L165.657469,16.538524 L160.721265,19.7745965 L165.657469,23.9883278 L163.853613,27.5502866 L165.657474,30.2992166 L163.853613,33.1376385 L168,37.3513705 L162.794463,38.7249922 L168,42.9387242 L162.794463,46.1747971 L165.657469,48.8903778 L163.853613,51.9250915 L166.871518,55.0280204 L160.721265,57.3495008 L165.657469,59.895696 L160.721265,62.9368545 L168,66.0116697 L162.794463,68.6871525 L165.657469,71.2979752 L160.721265,74.2745026 L166.871518,77.3493178 L163.853613,80.0248007 L165.657469,82.9460025 L160.721265,85.44921 L165.657469,88 L4.73428063,88 L7.36674816,85.44921 Z" id="Rectangle-1-Copy-2" opacity="0.049999997" fill="#292924" sketch:type="MSShapeGroup"></path>
    </g>
</svg>
